<svg width="21" height="21" viewBox="0 0 21 21" fill="none" xmlns="http://www.w3.org/2000/svg">
<path d="M19.1883 4.73906C18.0844 3.64922 16.6172 3.04453 15.0516 3.04219H15.0352C14.2828 3.04219 13.5492 3.18281 12.8508 3.45937C12.1266 3.74766 11.475 4.17188 10.9172 4.72266L5.45862 10.118C4.82815 10.7414 4.48362 11.5734 4.48596 12.4617C4.4883 13.3477 4.83752 14.1797 5.47033 14.8055C6.10315 15.4312 6.94221 15.7758 7.83752 15.7781H7.84455C8.73752 15.7781 9.57424 15.4359 10.2024 14.8172L14.993 10.0828C15.1524 9.92578 15.2391 9.71719 15.2391 9.49687C15.2391 9.27422 15.1524 9.06563 14.993 8.91094C14.836 8.75391 14.625 8.66953 14.4024 8.66953C14.1797 8.66953 13.9688 8.75625 13.8117 8.91094L9.02112 13.6453C8.7094 13.9547 8.28987 14.1234 7.84221 14.1234H7.83987C7.38752 14.1211 6.9633 13.9477 6.64924 13.6359C6.33283 13.3219 6.15705 12.9047 6.15705 12.4594C6.15471 12.0164 6.3258 11.6016 6.63987 11.2922L12.0985 5.89453C12.8766 5.12344 13.9219 4.69922 15.0375 4.69922H15.0492C16.1696 4.70156 17.2219 5.13281 18.0117 5.91094C18.7992 6.69141 19.2352 7.72969 19.2375 8.83594C19.2399 9.94219 18.811 10.9781 18.0305 11.7492L12.2391 17.4797C11.0813 18.6187 9.5344 19.2469 7.8844 19.2469H7.86799C6.21096 19.2422 4.65471 18.6047 3.48752 17.4516C2.32033 16.2984 1.6758 14.7609 1.67346 13.1227C1.66877 11.4844 2.30627 9.95156 3.46408 8.80781L10.9406 1.41562C11.1 1.25859 11.1867 1.05 11.1867 0.829687C11.1867 0.607031 11.1 0.398438 10.9406 0.24375C10.7813 0.0867188 10.5703 0 10.3477 0C10.125 0 9.91408 0.0867188 9.75705 0.241406L2.28049 7.63594C1.53518 8.37187 0.958615 9.23672 0.564865 10.2023C0.187521 11.1352 -0.00232231 12.1195 2.14378e-05 13.1273C0.00236519 14.1375 0.196896 15.1219 0.581271 16.0523C0.977365 17.018 1.55627 17.8828 2.30627 18.6234C3.05158 19.3617 3.92815 19.9359 4.90549 20.3297C5.84299 20.707 6.83908 20.8992 7.8633 20.9039H7.8844C8.90158 20.9039 9.8883 20.7164 10.8211 20.3438C11.7961 19.957 12.6703 19.3875 13.4156 18.6492L19.2071 12.9211C19.7625 12.3703 20.1938 11.7281 20.4844 11.0086C20.7656 10.3125 20.9086 9.58125 20.9063 8.82891C20.8992 7.28203 20.2899 5.82891 19.1883 4.73906Z" fill="#1890FF"/>
</svg>
