<svg width="44" height="43" viewBox="0 0 44 43" fill="none" xmlns="http://www.w3.org/2000/svg">
<path fill-rule="evenodd" clip-rule="evenodd" d="M31.238 17.8438C29.9616 17.8438 28.9287 18.8767 28.9287 20.1531C28.9287 21.4295 29.9658 22.4624 31.238 22.4624C32.5103 22.4624 33.5432 21.4295 33.5474 20.1531C33.5474 18.8767 32.5103 17.8438 31.238 17.8438ZM12.7664 17.8442C11.4899 17.8442 10.457 18.8771 10.457 20.1536C10.457 21.43 11.4941 22.4629 12.7664 22.4629C14.0428 22.4629 15.0757 21.43 15.0757 20.1536C15.0757 18.8771 14.0428 17.8442 12.7664 17.8442ZM19.6948 20.1531C19.6948 18.8767 20.7277 17.8438 22.0042 17.8438C23.2764 17.8438 24.3135 18.8767 24.3135 20.1531C24.3135 21.4295 23.2764 22.4624 22.0042 22.4624C20.7319 22.4624 19.6948 21.4295 19.6948 20.1531Z" fill="#D9D9D9"/>
<path fill-rule="evenodd" clip-rule="evenodd" d="M37.1637 5.85734C39.1497 7.70481 40.7075 9.8588 41.795 12.2563C42.9245 14.7504 43.4997 17.3999 43.4955 20.1333C43.4955 22.8667 42.9245 25.512 41.7908 28.0061C40.6991 30.4078 39.1413 32.5576 37.1595 34.405C35.1861 36.2441 32.8893 37.6885 30.3322 38.6962C27.6912 39.7333 24.8864 40.2624 21.9976 40.2624C19.7009 40.2624 17.4461 39.9265 15.2879 39.2631L9.06108 42.8027C8.83014 42.9328 8.56982 43 8.31369 43C8.08276 43 7.84762 42.9454 7.63348 42.8362C7.18001 42.6095 6.8735 42.1686 6.81472 41.6648L5.84479 33.4099C2.39757 29.7318 0.503906 25.0375 0.503906 20.1291C0.503906 17.3999 1.07914 14.7504 2.20862 12.2563C3.30031 9.8546 4.85807 7.70481 6.83991 5.85734C8.81335 4.01826 11.1101 2.57387 13.6672 1.56616C16.3082 0.52905 19.113 0 22.0018 0C24.8906 0 27.6954 0.52905 30.3364 1.56616C32.8935 2.57387 35.1903 4.01826 37.1637 5.85734ZM35.1029 32.1884C36.795 30.6138 38.1176 28.7831 39.0414 26.7509C39.9945 24.6515 40.4773 22.4261 40.4815 20.1294C40.4815 17.8326 39.9987 15.6073 39.0456 13.5079C38.1218 11.4714 36.795 9.64496 35.1071 8.07041C33.4108 6.48745 31.4331 5.24881 29.2287 4.37965C26.9404 3.48111 24.5093 3.02344 22.0026 3.02344C19.4959 3.02344 17.0648 3.48111 14.7806 4.37965C12.5763 5.24881 10.5986 6.49165 8.90231 8.07041C7.21019 9.64496 5.88756 11.4756 4.96382 13.5079C4.01069 15.6073 3.52783 17.8326 3.52783 20.1294C3.52783 24.408 5.24514 28.506 8.36066 31.6635C8.59579 31.9028 8.74695 32.2136 8.78474 32.5495L9.54892 39.045L14.3734 36.3032C14.747 36.0891 15.1963 36.0471 15.6078 36.1856C17.6484 36.8826 19.8024 37.2353 21.9984 37.2353C24.5051 37.2353 26.9362 36.7819 29.2245 35.8791C31.4289 35.01 33.4066 33.7671 35.1029 32.1884Z" fill="#D9D9D9"/>
</svg>
