<svg width="14" height="14" viewBox="0 0 14 14" fill="none" xmlns="http://www.w3.org/2000/svg">
<path fill-rule="evenodd" clip-rule="evenodd" d="M12.9939 2.78137C12.9009 2.68845 12.7658 2.63664 12.6347 2.63664H10.114V1.85131C10.114 1.32019 9.68244 0.888672 9.15132 0.888672H4.84842C4.3173 0.888672 3.88578 1.32019 3.88578 1.85131V2.63664H1.35221C1.08331 2.63664 0.863281 2.85507 0.863281 3.12557C0.863281 3.39607 1.08171 3.6145 1.35221 3.6145H1.78373V12.1234C1.78373 12.6545 2.21525 13.086 2.74637 13.086H11.3906C11.9217 13.086 12.3533 12.6545 12.3533 12.1234V3.6145H12.6344C12.9033 3.6145 13.137 3.39607 13.137 3.12557C13.1373 2.9958 13.0868 2.8743 12.9939 2.78137ZM2.25771 12.839C2.27693 12.8598 2.29723 12.8786 2.31779 12.8973L2.31777 12.8973C2.29721 12.8786 2.27666 12.8598 2.25771 12.839ZM2.38988 12.9138C2.40921 12.9348 2.42889 12.9559 2.44822 12.9721C2.43613 12.962 2.42472 12.9499 2.41263 12.9372C2.40539 12.9296 2.3979 12.9217 2.38988 12.9138ZM9.14705 1.85425H4.84682V2.64492H9.14705V1.85425ZM11.389 12.122H2.74637V3.6145H3.99179H11.389V12.122ZM6.50186 5.74459C6.50186 5.47276 6.72163 5.25299 6.99346 5.25299C7.2653 5.25299 7.48506 5.47302 7.48506 5.74459V10.3057C7.48506 10.5775 7.2653 10.7973 6.99346 10.7973C6.72163 10.7973 6.50186 10.5775 6.50186 10.3057V5.74459ZM4.33065 5.25299C4.05882 5.25299 3.83905 5.47276 3.83905 5.74459V10.3057C3.83905 10.5775 4.05882 10.7973 4.33065 10.7973C4.60249 10.7973 4.82225 10.5775 4.82225 10.3057V5.74459C4.82225 5.47302 4.60222 5.25299 4.33065 5.25299ZM9.13744 5.74459C9.13744 5.47276 9.3572 5.25299 9.62904 5.25299C9.90087 5.25299 10.1206 5.47302 10.1206 5.74459V10.3057C10.1206 10.5775 9.90087 10.7973 9.62904 10.7973C9.3572 10.7973 9.13744 10.5775 9.13744 10.3057V5.74459Z" fill="#F5222D"/>
</svg>
