<svg width="206" height="206" viewBox="0 0 206 206" fill="none" xmlns="http://www.w3.org/2000/svg">
<rect width="206" height="206" rx="2" fill="#F6F6F6"/>
<rect x="0.5" y="0.5" width="205" height="205" rx="1.5" stroke="black" stroke-opacity="0.09" stroke-dasharray="2 2"/>
<path d="M60.6172 165H59.5098V157.877C59.5098 157.285 59.528 156.724 59.5645 156.195C59.4688 156.291 59.3617 156.391 59.2432 156.496C59.1247 156.601 58.5824 157.045 57.6162 157.829L57.0146 157.05L59.6602 155.006H60.6172V165ZM67.7334 154.862C68.6449 154.862 69.3672 155.074 69.9004 155.498C70.4336 155.922 70.7002 156.507 70.7002 157.255C70.7002 157.747 70.5475 158.196 70.2422 158.602C69.9368 159.007 69.4492 159.376 68.7793 159.709C69.5905 160.096 70.167 160.504 70.5088 160.933C70.8506 161.356 71.0215 161.849 71.0215 162.409C71.0215 163.239 70.7321 163.902 70.1533 164.398C69.5745 164.891 68.7816 165.137 67.7744 165.137C66.708 165.137 65.8877 164.904 65.3135 164.439C64.7393 163.97 64.4521 163.307 64.4521 162.45C64.4521 161.306 65.1494 160.415 66.5439 159.777C65.915 159.422 65.4639 159.039 65.1904 158.629C64.917 158.214 64.7803 157.752 64.7803 157.241C64.7803 156.517 65.0469 155.94 65.5801 155.512C66.1178 155.079 66.8356 154.862 67.7334 154.862ZM65.5732 162.478C65.5732 163.024 65.7624 163.451 66.1406 163.756C66.5234 164.061 67.0589 164.214 67.7471 164.214C68.4261 164.214 68.9548 164.054 69.333 163.735C69.7113 163.416 69.9004 162.979 69.9004 162.423C69.9004 161.981 69.7227 161.589 69.3672 161.247C69.0117 160.901 68.3919 160.566 67.5078 160.242C66.8288 160.534 66.3366 160.857 66.0312 161.213C65.7259 161.564 65.5732 161.985 65.5732 162.478ZM67.7197 155.785C67.1501 155.785 66.7035 155.922 66.3799 156.195C66.0563 156.469 65.8945 156.833 65.8945 157.289C65.8945 157.708 66.029 158.068 66.2979 158.369C66.5667 158.67 67.0635 158.971 67.7881 159.271C68.4398 158.998 68.9001 158.704 69.1689 158.39C69.4424 158.075 69.5791 157.708 69.5791 157.289C69.5791 156.829 69.4128 156.464 69.0801 156.195C68.752 155.922 68.2985 155.785 67.7197 155.785ZM79.0605 159.989C79.0605 161.716 78.7871 163.006 78.2402 163.858C77.6979 164.711 76.8662 165.137 75.7451 165.137C74.6696 165.137 73.8516 164.701 73.291 163.831C72.7305 162.956 72.4502 161.675 72.4502 159.989C72.4502 158.248 72.7214 156.956 73.2637 156.113C73.806 155.27 74.6331 154.849 75.7451 154.849C76.8298 154.849 77.6523 155.288 78.2129 156.168C78.778 157.048 79.0605 158.321 79.0605 159.989ZM73.5986 159.989C73.5986 161.443 73.7695 162.503 74.1113 163.168C74.4531 163.829 74.9977 164.159 75.7451 164.159C76.5016 164.159 77.0485 163.824 77.3857 163.154C77.7275 162.48 77.8984 161.425 77.8984 159.989C77.8984 158.554 77.7275 157.503 77.3857 156.838C77.0485 156.168 76.5016 155.833 75.7451 155.833C74.9977 155.833 74.4531 156.163 74.1113 156.824C73.7695 157.48 73.5986 158.535 73.5986 159.989ZM84.4541 165.137C83.9665 165.137 83.5199 165.048 83.1143 164.87C82.7132 164.688 82.376 164.41 82.1025 164.036H82.0205C82.0752 164.474 82.1025 164.888 82.1025 165.28V168.363H80.9678V157.508H81.8906L82.0479 158.533H82.1025C82.3942 158.123 82.7337 157.827 83.1211 157.645C83.5085 157.462 83.9528 157.371 84.4541 157.371C85.4476 157.371 86.2132 157.711 86.751 158.39C87.2933 159.069 87.5645 160.021 87.5645 161.247C87.5645 162.478 87.2887 163.435 86.7373 164.118C86.1904 164.797 85.4294 165.137 84.4541 165.137ZM84.29 158.335C83.5244 158.335 82.9707 158.547 82.6289 158.971C82.2871 159.395 82.1117 160.069 82.1025 160.994V161.247C82.1025 162.3 82.278 163.054 82.6289 163.51C82.9798 163.961 83.5426 164.187 84.3174 164.187C84.9645 164.187 85.4704 163.924 85.835 163.4C86.2041 162.876 86.3887 162.154 86.3887 161.233C86.3887 160.299 86.2041 159.584 85.835 159.087C85.4704 158.586 84.9554 158.335 84.29 158.335ZM91.3584 161.165L88.7539 157.508H90.0459L92.0215 160.379L93.9902 157.508H95.2686L92.6641 161.165L95.4053 165H94.1201L92.0215 161.965L89.9023 165H88.6172L91.3584 161.165ZM102.337 161.165L99.7324 157.508H101.024L103 160.379L104.969 157.508H106.247L103.643 161.165L106.384 165H105.099L103 161.965L100.881 165H99.5957L102.337 161.165ZM115.195 165H114.088V157.877C114.088 157.285 114.106 156.724 114.143 156.195C114.047 156.291 113.94 156.391 113.821 156.496C113.703 156.601 113.16 157.045 112.194 157.829L111.593 157.05L114.238 155.006H115.195V165ZM122.312 154.862C123.223 154.862 123.945 155.074 124.479 155.498C125.012 155.922 125.278 156.507 125.278 157.255C125.278 157.747 125.126 158.196 124.82 158.602C124.515 159.007 124.027 159.376 123.357 159.709C124.169 160.096 124.745 160.504 125.087 160.933C125.429 161.356 125.6 161.849 125.6 162.409C125.6 163.239 125.31 163.902 124.731 164.398C124.153 164.891 123.36 165.137 122.353 165.137C121.286 165.137 120.466 164.904 119.892 164.439C119.317 163.97 119.03 163.307 119.03 162.45C119.03 161.306 119.728 160.415 121.122 159.777C120.493 159.422 120.042 159.039 119.769 158.629C119.495 158.214 119.358 157.752 119.358 157.241C119.358 156.517 119.625 155.94 120.158 155.512C120.696 155.079 121.414 154.862 122.312 154.862ZM120.151 162.478C120.151 163.024 120.34 163.451 120.719 163.756C121.102 164.061 121.637 164.214 122.325 164.214C123.004 164.214 123.533 164.054 123.911 163.735C124.289 163.416 124.479 162.979 124.479 162.423C124.479 161.981 124.301 161.589 123.945 161.247C123.59 160.901 122.97 160.566 122.086 160.242C121.407 160.534 120.915 160.857 120.609 161.213C120.304 161.564 120.151 161.985 120.151 162.478ZM122.298 155.785C121.728 155.785 121.282 155.922 120.958 156.195C120.634 156.469 120.473 156.833 120.473 157.289C120.473 157.708 120.607 158.068 120.876 158.369C121.145 158.67 121.642 158.971 122.366 159.271C123.018 158.998 123.478 158.704 123.747 158.39C124.021 158.075 124.157 157.708 124.157 157.289C124.157 156.829 123.991 156.464 123.658 156.195C123.33 155.922 122.877 155.785 122.298 155.785ZM133.639 159.989C133.639 161.716 133.365 163.006 132.818 163.858C132.276 164.711 131.444 165.137 130.323 165.137C129.248 165.137 128.43 164.701 127.869 163.831C127.309 162.956 127.028 161.675 127.028 159.989C127.028 158.248 127.299 156.956 127.842 156.113C128.384 155.27 129.211 154.849 130.323 154.849C131.408 154.849 132.23 155.288 132.791 156.168C133.356 157.048 133.639 158.321 133.639 159.989ZM128.177 159.989C128.177 161.443 128.348 162.503 128.689 163.168C129.031 163.829 129.576 164.159 130.323 164.159C131.08 164.159 131.627 163.824 131.964 163.154C132.306 162.48 132.477 161.425 132.477 159.989C132.477 158.554 132.306 157.503 131.964 156.838C131.627 156.168 131.08 155.833 130.323 155.833C129.576 155.833 129.031 156.163 128.689 156.824C128.348 157.48 128.177 158.535 128.177 159.989ZM139.032 165.137C138.545 165.137 138.098 165.048 137.692 164.87C137.291 164.688 136.954 164.41 136.681 164.036H136.599C136.653 164.474 136.681 164.888 136.681 165.28V168.363H135.546V157.508H136.469L136.626 158.533H136.681C136.972 158.123 137.312 157.827 137.699 157.645C138.087 157.462 138.531 157.371 139.032 157.371C140.026 157.371 140.791 157.711 141.329 158.39C141.871 159.069 142.143 160.021 142.143 161.247C142.143 162.478 141.867 163.435 141.315 164.118C140.769 164.797 140.007 165.137 139.032 165.137ZM138.868 158.335C138.103 158.335 137.549 158.547 137.207 158.971C136.865 159.395 136.69 160.069 136.681 160.994V161.247C136.681 162.3 136.856 163.054 137.207 163.51C137.558 163.961 138.121 164.187 138.896 164.187C139.543 164.187 140.049 163.924 140.413 163.4C140.782 162.876 140.967 162.154 140.967 161.233C140.967 160.299 140.782 159.584 140.413 159.087C140.049 158.586 139.534 158.335 138.868 158.335ZM145.937 161.165L143.332 157.508H144.624L146.6 160.379L148.568 157.508H149.847L147.242 161.165L149.983 165H148.698L146.6 161.965L144.48 165H143.195L145.937 161.165Z" fill="#ADAFB0"/>
<path d="M114.417 93.4561H114.917H127.851H128.351V93.9561V110.187V110.544L128.014 110.66C124.443 111.889 120.527 112.5 116.27 112.5C111.55 112.5 107.83 111.121 105.185 108.305L105.184 108.304C102.557 105.491 101.278 101.514 101.278 96.4485C101.278 91.4896 102.689 87.564 105.569 84.7419C108.447 81.9209 112.455 80.5412 117.52 80.5412C119.438 80.5412 121.249 80.7227 122.954 81.0878C122.954 81.0878 122.954 81.0878 122.954 81.0878L122.85 81.5767L114.417 93.4561ZM114.417 93.4561V93.9561M114.417 93.4561V93.9561M114.417 93.9561V100.239V100.739M114.417 93.9561V100.739M114.417 100.739H114.917M114.417 100.739H114.917M114.917 100.739H119.767V104.551C118.903 104.72 117.963 104.806 116.946 104.806C114.87 104.806 113.339 104.12 112.275 102.791C111.211 101.43 110.641 99.4091 110.641 96.6545C110.641 93.852 111.269 91.7792 112.452 90.363L114.917 100.739ZM44.5 111.588V112.088H45H64.6367H65.1367V111.588V105.017V104.517H64.6367H53.5965V81.4738V80.9738H53.0965H45H44.5V81.4738V111.588ZM71.7136 108.368L71.7145 108.369C74.3485 111.145 78.1035 112.5 82.9 112.5C87.761 112.5 91.5329 111.154 94.1283 108.387C96.7183 105.626 97.9737 101.633 97.9737 96.4897C97.9737 91.3344 96.7258 87.34 94.1489 84.5922C91.5666 81.8387 87.8011 80.5 82.941 80.5C78.092 80.5 74.3148 81.8538 71.6931 84.6323L71.693 84.6323C69.0896 87.3922 67.8262 91.3581 67.8262 96.4485C67.8262 101.593 69.096 105.594 71.7136 108.368ZM87.0418 102.813L87.04 102.816C86.1681 104.069 84.8215 104.723 82.9 104.723C81.0221 104.723 79.6763 104.056 78.776 102.755C77.8526 101.422 77.3532 99.3586 77.3532 96.4897C77.3532 93.5931 77.856 91.5094 78.7866 90.1619C79.694 88.8478 81.05 88.1738 82.941 88.1738C84.7982 88.1738 86.1286 88.8344 87.0187 90.121L87.0219 90.1255C87.9438 91.4276 88.4467 93.5195 88.4467 96.4897C88.4467 99.4471 87.9504 101.525 87.0418 102.813ZM136.24 108.368L136.241 108.369C138.875 111.145 142.63 112.5 147.426 112.5C152.287 112.5 156.059 111.154 158.655 108.387C161.245 105.626 162.5 101.633 162.5 96.4897C162.5 91.3344 161.252 87.34 158.675 84.5922C156.093 81.8387 152.327 80.5 147.467 80.5C142.618 80.5 138.841 81.8538 136.219 84.6323L136.219 84.6323C133.616 87.3922 132.352 91.3581 132.352 96.4485C132.352 101.593 133.622 105.594 136.24 108.368ZM151.568 102.813L151.566 102.816C150.694 104.069 149.348 104.723 147.426 104.723C145.548 104.723 144.203 104.056 143.302 102.755C142.379 101.422 141.879 99.3586 141.879 96.4897C141.879 93.5931 142.382 91.5094 143.313 90.1619C144.22 88.8478 145.576 88.1738 147.467 88.1738C149.324 88.1738 150.655 88.8344 151.545 90.121L151.548 90.1255C152.47 91.4276 152.973 93.5195 152.973 96.4897C152.973 99.4471 152.477 101.525 151.568 102.813Z" stroke="#D9D9D9"/>
</svg>
