<?xml version="1.0" encoding="UTF-8"?>
<svg xmlns="http://www.w3.org/2000/svg" xmlns:xlink="http://www.w3.org/1999/xlink" width="100pt" height="112pt" viewBox="0 0 100 112" version="1.1">
<g id="surface1">
<path style=" stroke:none;fill-rule:nonzero;fill:rgb(0%,0%,0%);fill-opacity:0.301961;" d="M 73.433594 23.332031 C 73.433594 36.21875 62.941406 46.664062 50 46.664062 C 37.054688 46.664062 26.5625 36.21875 26.5625 23.332031 C 26.5625 10.445312 37.054688 0 50 0 C 62.941406 0 73.433594 10.445312 73.433594 23.332031 Z M 73.433594 23.332031 "/>
<path style=" stroke:none;fill-rule:nonzero;fill:rgb(0%,0%,0%);fill-opacity:0.301961;" d="M 3.125 81.046875 C 3.125 74.367188 7.210938 68.359375 13.4375 65.878906 C 36.90625 56.535156 63.089844 56.535156 86.558594 65.878906 C 92.785156 68.359375 96.871094 74.367188 96.871094 81.046875 L 96.871094 105.761719 C 96.871094 109.199219 94.074219 111.984375 90.621094 111.984375 L 9.375 111.984375 C 5.921875 111.984375 3.125 109.199219 3.125 105.761719 Z M 3.125 81.046875 "/>
</g>
</svg>
