<svg width="17" height="17" viewBox="0 0 17 17" fill="none" xmlns="http://www.w3.org/2000/svg">
<path fill-rule="evenodd" clip-rule="evenodd" d="M12.898 11.9323L16.8008 15.8331C17.0664 16.1007 17.0664 16.5333 16.8027 16.8008C16.668 16.9336 16.4953 17 16.3189 17C16.1424 17 15.9679 16.9336 15.835 16.8008L11.9323 12.898C10.6705 13.9434 9.05212 14.5714 7.28571 14.5714C3.2615 14.5714 0 11.3099 0 7.28571C0 3.2615 3.2615 0 7.28571 0C11.3099 0 14.5714 3.2615 14.5714 7.28571C14.5714 9.05212 13.9434 10.6705 12.898 11.9323ZM7.2857 13.2054C8.08637 13.2054 8.86048 13.0498 9.58905 12.7405C10.2949 12.4426 10.9267 12.0157 11.4712 11.4712C12.0157 10.9267 12.4426 10.293 12.7405 9.58906C13.0498 8.86049 13.2053 8.08638 13.2053 7.28571C13.2053 6.48504 13.0498 5.71094 12.7405 4.98237C12.4426 4.27846 12.0157 3.64475 11.4712 3.10022C10.9267 2.55569 10.293 2.12879 9.58905 1.83092C8.86048 1.52165 8.08637 1.36607 7.2857 1.36607C6.48503 1.36607 5.71092 1.52165 4.98235 1.83092C4.27845 2.12879 3.64474 2.55569 3.10021 3.10022C2.55568 3.64475 2.12878 4.27846 1.8309 4.98237C1.52164 5.71094 1.36606 6.48504 1.36606 7.28571C1.36606 8.08638 1.52164 8.86049 1.8309 9.58906C2.12878 10.293 2.55568 10.9267 3.10021 11.4712C3.64474 12.0157 4.27845 12.4426 4.98235 12.7405C5.71092 13.0498 6.48503 13.2054 7.2857 13.2054Z" fill="white"/>
</svg>
