<svg width="24" height="24" viewBox="0 0 24 24" fill="none" xmlns="http://www.w3.org/2000/svg">
<path d="M23.5 12C23.5 18.3513 18.3513 23.5 12 23.5C5.64873 23.5 0.5 18.3513 0.5 12C0.5 5.64873 5.64873 0.5 12 0.5C18.3513 0.5 23.5 5.64873 23.5 12Z" fill="white" stroke="#D9D9D9"/>
<path fill-rule="evenodd" clip-rule="evenodd" d="M17.9936 7.78137C17.9007 7.68845 17.7656 7.63664 17.6345 7.63664H15.1137V6.85131C15.1137 6.32019 14.6822 5.88867 14.1511 5.88867H9.84817C9.31705 5.88867 8.88554 6.32019 8.88554 6.85131V7.63664H6.35197C6.08307 7.63664 5.86304 7.85507 5.86304 8.12557C5.86304 8.39607 6.08147 8.6145 6.35197 8.6145H6.78349V17.1234C6.78349 17.6545 7.215 18.086 7.74612 18.086H16.3904C16.9215 18.086 17.353 17.6545 17.353 17.1234V8.6145H17.6342C17.9031 8.6145 18.1367 8.39607 18.1367 8.12557C18.137 7.9958 18.0865 7.8743 17.9936 7.78137ZM7.25746 17.839C7.27669 17.8598 7.29698 17.8786 7.31754 17.8973L7.31753 17.8973C7.29697 17.8786 7.27642 17.8598 7.25746 17.839ZM7.38964 17.9138C7.40897 17.9348 7.42864 17.9559 7.44797 17.9721C7.43589 17.962 7.42448 17.9499 7.41239 17.9372C7.40514 17.9296 7.39766 17.9217 7.38964 17.9138ZM14.1468 6.85425H9.84657V7.64492H14.1468V6.85425ZM16.3888 17.122H7.74612V8.6145H8.99155H16.3888V17.122ZM11.5016 10.7446C11.5016 10.4728 11.7214 10.253 11.9932 10.253C12.2651 10.253 12.4848 10.473 12.4848 10.7446V15.3057C12.4848 15.5775 12.2651 15.7973 11.9932 15.7973C11.7214 15.7973 11.5016 15.5775 11.5016 15.3057V10.7446ZM9.33041 10.253C9.05857 10.253 8.83881 10.4728 8.83881 10.7446V15.3057C8.83881 15.5775 9.05857 15.7973 9.33041 15.7973C9.60224 15.7973 9.82201 15.5775 9.82201 15.3057V10.7446C9.82201 10.473 9.60197 10.253 9.33041 10.253ZM14.1372 10.7446C14.1372 10.4728 14.357 10.253 14.6288 10.253C14.9006 10.253 15.1204 10.473 15.1204 10.7446V15.3057C15.1204 15.5775 14.9006 15.7973 14.6288 15.7973C14.357 15.7973 14.1372 15.5775 14.1372 15.3057V10.7446Z" fill="#F5222D"/>
</svg>
